<svg aria-hidden="true" style="position:absolute;width:0,height:0, overflow:hidden" xmlns="http://www.w3.org/2000/svg">
<defs>
<symbol id="icon-social" viewBox="0 0 36 32">
<path d="M15 4c-1.583 0-3.112 0.248-4.543 0.738-1.341 0.459-2.535 1.107-3.547 1.926-1.876 1.518-2.91 3.463-2.91 5.474 0 1.125 0.315 2.217 0.935 3.247 0.646 1.073 1.622 2.056 2.821 2.842 0.951 0.624 1.592 1.623 1.761 2.748 0.028 0.187 0.051 0.375 0.068 0.564 0.085-0.079 0.169-0.16 0.254-0.244 0.754-0.751 1.771-1.166 2.823-1.166 0.167 0 0.335 0.011 0.503 0.032 0.605 0.077 1.223 0.116 1.836 0.116 1.583 0 3.112-0.248 4.543-0.738 1.341-0.459 2.535-1.107 3.547-1.926 1.876-1.518 2.91-3.463 2.91-5.474s-1.033-3.956-2.91-5.474c-1.012-0.819-2.206-1.467-3.547-1.926-1.431-0.49-2.96-0.738-4.543-0.738zM15 0v0c8.284 0 15 5.435 15 12.139s-6.716 12.139-15 12.139c-0.796 0-1.576-0.051-2.339-0.147-3.222 3.209-6.943 3.785-10.661 3.869v-0.785c2.008-0.98 3.625-2.765 3.625-4.804 0-0.285-0.022-0.564-0.063-0.837-3.392-2.225-5.562-5.625-5.562-9.434 0-6.704 6.716-12.139 15-12.139zM31.125 27.209c0 1.748 1.135 3.278 2.875 4.118v0.673c-3.223-0.072-6.181-0.566-8.973-3.316-0.661 0.083-1.337 0.126-2.027 0.126-2.983 0-5.732-0.805-7.925-2.157 4.521-0.016 8.789-1.464 12.026-4.084 1.631-1.32 2.919-2.87 3.825-4.605 0.961-1.84 1.449-3.799 1.449-5.825 0-0.326-0.014-0.651-0.039-0.974 2.268 1.873 3.664 4.426 3.664 7.24 0 3.265-1.88 6.179-4.82 8.086-0.036 0.234-0.055 0.474-0.055 0.718z"></path>
</symbol>
<symbol id="icon-earth" viewBox="0 0 32 32">
<path d="M16 0c-8.837 0-16 7.163-16 16s7.163 16 16 16 16-7.163 16-16-7.163-16-16-16zM16 30c-1.967 0-3.84-0.407-5.538-1.139l7.286-8.197c0.163-0.183 0.253-0.419 0.253-0.664v-3c0-0.552-0.448-1-1-1-3.531 0-7.256-3.671-7.293-3.707-0.188-0.188-0.442-0.293-0.707-0.293h-4c-0.552 0-1 0.448-1 1v6c0 0.379 0.214 0.725 0.553 0.894l3.447 1.724v5.871c-3.627-2.53-6-6.732-6-11.489 0-2.147 0.484-4.181 1.348-6h3.652c0.265 0 0.52-0.105 0.707-0.293l4-4c0.188-0.188 0.293-0.442 0.293-0.707v-2.419c1.268-0.377 2.61-0.581 4-0.581 2.2 0 4.281 0.508 6.134 1.412-0.13 0.109-0.256 0.224-0.376 0.345-1.133 1.133-1.757 2.64-1.757 4.243s0.624 3.109 1.757 4.243c1.139 1.139 2.663 1.758 4.239 1.758 0.099 0 0.198-0.002 0.297-0.007 0.432 1.619 1.211 5.833-0.263 11.635-0.014 0.055-0.022 0.109-0.026 0.163-2.541 2.596-6.084 4.208-10.004 4.208z"></path>
</symbol>
<symbol id="icon-mail-two" viewBox="0 0 32 32">
<path d="M26.667 0h-21.333c-2.934 0-5.334 2.4-5.334 5.334v21.332c0 2.936 2.4 5.334 5.334 5.334h21.333c2.934 0 5.333-2.398 5.333-5.334v-21.332c0-2.934-2.399-5.334-5.333-5.334zM26.667 4c0.25 0 0.486 0.073 0.688 0.198l-11.355 9.388-11.355-9.387c0.202-0.125 0.439-0.198 0.689-0.198h21.333zM5.334 28c-0.060 0-0.119-0.005-0.178-0.013l7.051-9.78-0.914-0.914-7.293 7.293v-19.098l12 14.512 12-14.512v19.098l-7.293-7.293-0.914 0.914 7.051 9.78c-0.058 0.008-0.117 0.013-0.177 0.013h-21.333z"></path>
</symbol>
<symbol id="icon-facebook" viewBox="0 0 32 32">
<path d="M19 6h5v-6h-5c-3.86 0-7 3.14-7 7v3h-4v6h4v16h6v-16h5l1-6h-6v-3c0-0.542 0.458-1 1-1z"></path>
</symbol>     
<symbol id="icon-dribbble" viewBox="0 0 32 32">
<path d="M16 32c-8.825 0-16-7.175-16-16s7.175-16 16-16c8.825 0 16 7.175 16 16s-7.175 16-16 16v0zM29.494 18.188c-0.469-0.15-4.231-1.269-8.512-0.581 1.788 4.912 2.512 8.912 2.656 9.744 3.063-2.075 5.25-5.356 5.856-9.163v0zM21.337 28.6c-0.206-1.2-0.994-5.375-2.913-10.363-0.031 0.012-0.063 0.019-0.087 0.031-7.713 2.688-10.481 8.031-10.725 8.531 2.319 1.806 5.231 2.887 8.387 2.887 1.894 0 3.7-0.387 5.338-1.087v0zM5.844 25.156c0.313-0.531 4.063-6.738 11.106-9.019 0.175-0.056 0.356-0.113 0.538-0.162-0.344-0.775-0.719-1.556-1.106-2.319-6.819 2.044-13.444 1.956-14.044 1.95-0.006 0.137-0.006 0.275-0.006 0.419 0 3.506 1.331 6.712 3.512 9.131v0zM2.625 13.219c0.612 0.006 6.244 0.031 12.637-1.662-2.262-4.025-4.706-7.412-5.069-7.906-3.825 1.806-6.688 5.331-7.569 9.569v0zM12.8 2.731c0.375 0.506 2.863 3.888 5.1 8 4.863-1.819 6.919-4.588 7.163-4.938-2.413-2.144-5.587-3.444-9.063-3.444-1.1 0.006-2.175 0.138-3.2 0.381v0zM26.581 7.381c-0.288 0.388-2.581 3.325-7.631 5.388 0.319 0.65 0.625 1.313 0.906 1.981 0.1 0.238 0.2 0.469 0.294 0.706 4.55-0.569 9.069 0.344 9.519 0.438-0.031-3.225-1.188-6.188-3.087-8.512v0z"></path>
</symbol>
<symbol id="icon-linkedin2" viewBox="0 0 32 32">
<path d="M12 12h5.535v2.837h0.079c0.77-1.381 2.655-2.837 5.464-2.837 5.842 0 6.922 3.637 6.922 8.367v9.633h-5.769v-8.54c0-2.037-0.042-4.657-3.001-4.657-3.005 0-3.463 2.218-3.463 4.509v8.688h-5.767v-18z"></path>
<path d="M2 12h6v18h-6v-18z"></path>
<path d="M8 7c0 1.657-1.343 3-3 3s-3-1.343-3-3c0-1.657 1.343-3 3-3s3 1.343 3 3z"></path>
</symbol>
<symbol id="icon-twitter" viewBox="0 0 32 32">
<path d="M32 7.075c-1.175 0.525-2.444 0.875-3.769 1.031 1.356-0.813 2.394-2.1 2.887-3.631-1.269 0.75-2.675 1.3-4.169 1.594-1.2-1.275-2.906-2.069-4.794-2.069-3.625 0-6.563 2.938-6.563 6.563 0 0.512 0.056 1.012 0.169 1.494-5.456-0.275-10.294-2.888-13.531-6.862-0.563 0.969-0.887 2.1-0.887 3.3 0 2.275 1.156 4.287 2.919 5.463-1.075-0.031-2.087-0.331-2.975-0.819 0 0.025 0 0.056 0 0.081 0 3.181 2.263 5.838 5.269 6.437-0.55 0.15-1.131 0.231-1.731 0.231-0.425 0-0.831-0.044-1.237-0.119 0.838 2.606 3.263 4.506 6.131 4.563-2.25 1.762-5.075 2.813-8.156 2.813-0.531 0-1.050-0.031-1.569-0.094 2.913 1.869 6.362 2.95 10.069 2.95 12.075 0 18.681-10.006 18.681-18.681 0-0.287-0.006-0.569-0.019-0.85 1.281-0.919 2.394-2.075 3.275-3.394z"></path>
</symbol>
<symbol id="icon-behance" viewBox="0 0 32 32">
<path d="M9.281 6.412c0.944 0 1.794 0.081 2.569 0.25 0.775 0.162 1.431 0.438 1.988 0.813 0.55 0.375 0.975 0.875 1.287 1.5 0.3 0.619 0.45 1.394 0.45 2.313 0 0.994-0.225 1.819-0.675 2.481-0.456 0.662-1.119 1.2-2.006 1.625 1.213 0.35 2.106 0.962 2.706 1.831 0.6 0.875 0.887 1.925 0.887 3.163 0 1-0.194 1.856-0.575 2.581-0.387 0.731-0.912 1.325-1.556 1.781-0.65 0.462-1.4 0.8-2.237 1.019-0.831 0.219-1.688 0.331-2.575 0.331h-9.544v-19.688h9.281zM8.719 14.363c0.769 0 1.406-0.181 1.906-0.55 0.5-0.363 0.738-0.963 0.738-1.787 0-0.456-0.081-0.838-0.244-1.131-0.169-0.294-0.387-0.525-0.669-0.688-0.275-0.169-0.588-0.281-0.956-0.344-0.356-0.069-0.731-0.1-1.113-0.1h-4.050v4.6h4.388zM8.956 22.744c0.425 0 0.831-0.038 1.213-0.125 0.387-0.087 0.731-0.219 1.019-0.419 0.287-0.194 0.531-0.45 0.706-0.788 0.175-0.331 0.256-0.756 0.256-1.275 0-1.012-0.287-1.738-0.856-2.175-0.569-0.431-1.325-0.644-2.262-0.644h-4.7v5.419h4.625z"></path>
<path d="M22.663 22.675c0.587 0.575 1.431 0.863 2.531 0.863 0.788 0 1.475-0.2 2.044-0.6s0.913-0.825 1.044-1.262h3.45c-0.556 1.719-1.394 2.938-2.544 3.675-1.131 0.738-2.519 1.113-4.125 1.113-1.125 0-2.131-0.181-3.038-0.538-0.906-0.363-1.663-0.869-2.3-1.531-0.619-0.663-1.106-1.45-1.45-2.375-0.337-0.919-0.512-1.938-0.512-3.038 0-1.069 0.175-2.063 0.525-2.981 0.356-0.925 0.844-1.719 1.494-2.387s1.413-1.2 2.313-1.588c0.894-0.387 1.881-0.581 2.975-0.581 1.206 0 2.262 0.231 3.169 0.706 0.9 0.469 1.644 1.1 2.225 1.887s0.994 1.694 1.25 2.706c0.256 1.012 0.344 2.069 0.275 3.175h-10.294c0 1.119 0.375 2.188 0.969 2.756zM27.156 15.188c-0.462-0.512-1.256-0.794-2.212-0.794-0.625 0-1.144 0.106-1.556 0.319-0.406 0.213-0.738 0.475-0.994 0.787-0.25 0.313-0.425 0.65-0.525 1.006-0.1 0.344-0.163 0.663-0.181 0.938h6.375c-0.094-1-0.438-1.738-0.906-2.256z"></path>
<path d="M20.887 8h7.981v1.944h-7.981v-1.944z"></path>
</symbol>
<symbol id="icon-logo" viewBox="0 0 30 32">
<path d="M0 0h29.714v32h-29.714v-32z"></path>
</symbol>
<symbol id="icon-mapa" viewBox="0 0 22 32">
<path d="M0 0h21.662v32h-21.662v-32z"></path>
</symbol>
<symbol id="icon-solution" viewBox="0 0 34 32">
<path d="M0 0h34.151v32h-34.151v-32z"></path>
</symbol>
<symbol id="icon-email-big" viewBox="0 0 45 32">
<path d="M0 0h44.8v32h-44.8v-32z"></path>
</symbol>
<symbol id="icon-love" viewBox="0 0 39 32">
<path d="M0 0h38.857v32h-38.857v-32z"></path>
</symbol>
<symbol id="icon-progress" viewBox="0 0 34 32">
<path d="M0 0h34.151v32h-34.151v-32z"></path>
</symbol>
<symbol id="icon-target" viewBox="0 0 34 32">
<path d="M0 0h34.151v32h-34.151v-32z"></path>
</symbol>
<symbol id="icon-email-small" viewBox="0 0 32 32">
<path d="M15.157 23.443l-5.082-4.745c-0.401-0.375-1.050-0.375-1.451 0l-8.623 8.034v1.094c0 1.020 0.894 1.85 1.986 1.85h27.793c1.092 0 1.986-0.83 1.986-1.85v-1.094l-8.623-8.038c-0.403-0.371-1.054-0.371-1.451 0l-5.082 4.745c-0.401 0.377-1.050 0.377-1.451 0.004zM25.96 16.068l5.080 4.745c0.399 0.375 0.725 0.232 0.725-0.316v-10.21c0-0.55-0.326-0.691-0.725-0.316l-5.080 4.745c-0.403 0.373-0.403 0.977 0 1.352zM1.986 1.882c-1.092 0-1.986 0.834-1.986 1.852v0.333l15.080 14.125c0.399 0.375 1.047 0.375 1.446 0l15.24-14.293v-0.166c0-1.018-0.894-1.852-1.986-1.852h-27.793zM0 10.287v10.21c0 0.548 0.326 0.691 0.725 0.316l5.080-4.745c0.403-0.375 0.403-0.979 0-1.353l-5.080-4.744c-0.399-0.375-0.725-0.233-0.725 0.316z"></path>
</symbol>
<symbol id="icon-instagram" viewBox="0 0 32 32">
<path d="M25.672 15.998c0 5.342-4.335 9.673-9.675 9.673-5.342 0-9.672-4.331-9.672-9.673 0-0.636 0.062-1.257 0.181-1.86h-6.505v12.858c0 2.761 2.238 5 5 5h21.997c2.756 0 5-2.238 5-5v-12.858h-6.506c0.119 0.602 0.181 1.224 0.181 1.86zM26.997 0h-21.997c-2.761 0-5 2.238-5 5v5.417h8.1c1.751-2.475 4.636-4.092 7.896-4.092 3.264 0 6.15 1.615 7.897 4.092h8.104v-5.417c0-2.761-2.244-5-5-5zM29.442 6.176c0 0.491-0.405 0.894-0.894 0.894h-2.68c-0.493 0-0.892-0.401-0.892-0.894v-2.679c0-0.491 0.399-0.894 0.892-0.894h2.68c0.49 0 0.894 0.401 0.894 0.894v2.679zM21.948 15.998c0-3.288-2.664-5.954-5.952-5.954-3.285 0-5.952 2.667-5.952 5.954s2.667 5.95 5.952 5.95c3.288 0 5.952-2.664 5.952-5.95z"></path>
</symbol>
<symbol id="icon-adafruit" viewBox="0 0 32 32">
<path d="M19.199 17.059c-1.232 0.197-2.296-0.049-2.375-0.549-0.080-0.5 0.853-1.064 2.087-1.26 1.232-0.196 2.295 0.051 2.373 0.549 0.080 0.499-0.853 1.064-2.085 1.26zM18.028 22.205c-0.451 0.229-1.276-0.484-1.843-1.595-0.568-1.112-0.663-2.2-0.211-2.429 0.451-0.229 1.275 0.484 1.843 1.595 0.567 1.111 0.663 2.2 0.211 2.429zM13.175 20.136c-0.883 0.883-1.887 1.308-2.244 0.951-0.36-0.357 0.067-1.363 0.947-2.245 0.88-0.884 1.885-1.309 2.244-0.952s-0.067 1.364-0.947 2.247zM9.8 13.989c0.228-0.452 1.316-0.357 2.427 0.208 1.112 0.565 1.829 1.389 1.6 1.84-0.231 0.451-1.317 0.359-2.429-0.207s-1.827-1.391-1.597-1.841zM16.2 10.723c0.5 0.077 0.747 1.141 0.552 2.373-0.193 1.233-0.755 2.167-1.256 2.089-0.499-0.080-0.747-1.143-0.553-2.373 0.193-1.233 0.756-2.168 1.257-2.091zM31.98 14.095c-0.104-0.655-0.46-0.843-1.319-1.116l-5.016-1.6s-3.044-1.151-5.299 0.476c-0.304 0.219-0.619 0.468-0.933 0.733 0.264-0.315 0.513-0.629 0.733-0.933 1.62-2.259 0.465-5.3 0.465-5.3l-1.609-5.015c-0.276-0.857-0.463-1.213-1.12-1.315-0.656-0.104-0.943 0.176-1.468 0.907l-3.073 4.279s-2.032 2.537-1.184 5.187c0.115 0.355 0.255 0.732 0.411 1.115-0.247-0.398-0.465-0.719-0.695-1.032l0.032 0.046c-1.648-2.239-4.895-2.083-4.895-2.083s-4.584-0.016-5.267-0.016c-0.901-0.004-1.296 0.067-1.597 0.657s-0.124 0.952 0.409 1.677c0.404 0.553 3.12 4.244 3.12 4.244s1.784 2.717 4.564 2.728c0.373 0.001 0.773-0.016 1.185-0.045-0.5 0.122-0.881 0.234-1.256 0.359l0.116-0.033c-2.64 0.875-3.492 4.013-3.492 4.013l-1.647 5.004c-0.28 0.853-0.336 1.252 0.133 1.72 0.469 0.471 0.867 0.413 1.721 0.131 0.652-0.213 5-1.656 5-1.656s3.136-0.859 4.005-3.499c0.117-0.355 0.225-0.741 0.324-1.139-0.026 0.327-0.040 0.707-0.040 1.091 0 0.032 0 0.064 0 0.096l-0-0.005c0.013 2.78 2.735 4.561 2.735 4.561l4.248 3.111c0.728 0.531 1.088 0.708 1.68 0.407 0.591-0.301 0.66-0.697 0.655-1.599l-0.029-5.267s0.152-3.247-2.089-4.891c-0.268-0.198-0.589-0.415-0.919-0.621l-0.067-0.039c0.383 0.153 0.757 0.293 1.115 0.405 2.648 0.844 5.184-1.192 5.184-1.192l4.272-3.080c0.729-0.527 1.008-0.816 0.905-1.472z"></path>
</symbol>
<symbol id="icon-presentation-detail-svgrepo-com" viewBox="0 0 32 32">
<path d="M32 4.267v-4.267h-32v4.267h1.067v21.333h-0.533c-0.294 0-0.533 0.238-0.533 0.533s0.239 0.533 0.533 0.533h14.933v1.067c0 0.025 0.011 0.047 0.014 0.071-0.925 0.233-1.614 1.065-1.614 2.062 0 1.177 0.957 2.133 2.133 2.133s2.133-0.957 2.133-2.133c0-0.997-0.69-1.829-1.614-2.062 0.003-0.025 0.014-0.046 0.014-0.071v-1.067h14.933c0.294 0 0.533-0.238 0.533-0.533s-0.239-0.533-0.533-0.533h-0.533v-21.333h1.067zM17.067 29.867c0 0.588-0.478 1.067-1.067 1.067s-1.067-0.478-1.067-1.067 0.478-1.067 1.067-1.067 1.067 0.478 1.067 1.067zM1.067 1.067h29.867v2.133h-29.867v-2.133zM29.867 25.6h-27.733v-21.333h27.733v21.333z"></path>
<path d="M26.667 21.867h-8c-0.294 0-0.533 0.238-0.533 0.533s0.239 0.533 0.533 0.533h8c0.294 0 0.533-0.238 0.533-0.533s-0.239-0.533-0.533-0.533z"></path>
<path d="M5.333 19.2h5.333c0.294 0 0.533-0.238 0.533-0.533s-0.239-0.533-0.533-0.533h-5.333c-0.294 0-0.533 0.238-0.533 0.533s0.239 0.533 0.533 0.533z"></path>
<path d="M16 19.2h8c0.294 0 0.533-0.238 0.533-0.533s-0.239-0.533-0.533-0.533h-8c-0.294 0-0.533 0.238-0.533 0.533s0.239 0.533 0.533 0.533z"></path>
<path d="M12.955 18.288c-0.096 0.101-0.155 0.234-0.155 0.379 0 0.139 0.059 0.277 0.155 0.379 0.101 0.096 0.24 0.155 0.379 0.155s0.277-0.059 0.379-0.155c0.096-0.101 0.155-0.24 0.155-0.379s-0.059-0.278-0.155-0.379c-0.197-0.197-0.56-0.197-0.757 0z"></path>
<path d="M16 21.867h-8c-0.294 0-0.533 0.238-0.533 0.533s0.239 0.533 0.533 0.533h8c0.294 0 0.533-0.238 0.533-0.533s-0.239-0.533-0.533-0.533z"></path>
<path d="M5.333 22.933c0.139 0 0.277-0.059 0.379-0.155 0.096-0.101 0.155-0.24 0.155-0.379s-0.059-0.278-0.155-0.373c-0.197-0.203-0.555-0.203-0.757-0.005-0.096 0.101-0.155 0.24-0.155 0.379s0.059 0.277 0.155 0.379c0.101 0.096 0.24 0.155 0.379 0.155z"></path>
<path d="M26.288 18.288c-0.096 0.101-0.155 0.234-0.155 0.379 0 0.139 0.059 0.277 0.155 0.379 0.101 0.096 0.24 0.155 0.379 0.155s0.277-0.059 0.379-0.155c0.096-0.101 0.155-0.24 0.155-0.379s-0.059-0.278-0.155-0.379c-0.197-0.197-0.555-0.197-0.757 0z"></path>
<path d="M26.667 10.667h-8c-0.294 0-0.533 0.238-0.533 0.533s0.239 0.533 0.533 0.533h8c0.294 0 0.533-0.238 0.533-0.533s-0.239-0.533-0.533-0.533z"></path>
<path d="M26.667 14.4h-5.333c-0.294 0-0.533 0.238-0.533 0.533s0.239 0.533 0.533 0.533h5.333c0.294 0 0.533-0.238 0.533-0.533s-0.239-0.533-0.533-0.533z"></path>
<path d="M16 15.467h1.067c0.294 0 0.533-0.238 0.533-0.533s-0.239-0.533-0.533-0.533h-1.067c-0.294 0-0.533 0.238-0.533 0.533s0.239 0.533 0.533 0.533z"></path>
<path d="M16 8h8c0.294 0 0.533-0.238 0.533-0.533s-0.239-0.533-0.533-0.533h-8c-0.294 0-0.533 0.238-0.533 0.533s0.239 0.533 0.533 0.533z"></path>
<path d="M26.667 8c0.139 0 0.277-0.059 0.379-0.155 0.101-0.101 0.155-0.24 0.155-0.379s-0.053-0.278-0.155-0.379c-0.203-0.197-0.56-0.197-0.757 0-0.096 0.101-0.155 0.24-0.155 0.379s0.059 0.277 0.155 0.379c0.101 0.096 0.24 0.155 0.379 0.155z"></path>
<path d="M16.155 10.821c-0.096 0.101-0.155 0.234-0.155 0.379 0 0.139 0.059 0.277 0.155 0.379 0.101 0.096 0.24 0.155 0.379 0.155s0.277-0.059 0.379-0.155c0.096-0.101 0.155-0.24 0.155-0.379 0-0.145-0.059-0.278-0.155-0.379-0.203-0.197-0.555-0.197-0.757 0z"></path>
<path d="M18.821 14.555c-0.096 0.101-0.155 0.24-0.155 0.379s0.059 0.277 0.155 0.379c0.101 0.096 0.24 0.155 0.379 0.155s0.277-0.059 0.379-0.155c0.096-0.101 0.155-0.24 0.155-0.379s-0.059-0.278-0.155-0.379c-0.197-0.197-0.56-0.197-0.757 0z"></path>
<path d="M13.333 6.933h-8.533v8.533h8.533v-8.533zM12.267 14.4h-6.4v-6.4h6.4v6.4z"></path>
</symbol>
<symbol id="icon-presentation-chart-4-svgrepo-com" viewBox="0 0 32 32">
<path d="M32 2.133h-15.467v-1.6c0-0.295-0.238-0.533-0.533-0.533s-0.533 0.238-0.533 0.533v1.6h-15.467v22.4h14.713l-6.556 6.556c-0.209 0.209-0.209 0.546 0 0.754 0.104 0.104 0.241 0.156 0.377 0.156s0.273-0.052 0.377-0.156l6.556-6.556v5.113c0 0.295 0.238 0.533 0.533 0.533s0.533-0.238 0.533-0.533v-5.113l6.556 6.556c0.104 0.104 0.241 0.156 0.377 0.156s0.273-0.052 0.377-0.156c0.209-0.209 0.209-0.546 0-0.754l-6.556-6.556h14.713v-22.4zM30.933 23.467h-29.867v-20.267h29.867v20.267z"></path>
<path d="M19.2 22.4c0.295 0 0.533-0.238 0.533-0.533v-1.6c0-0.295-0.238-0.533-0.533-0.533s-0.533 0.238-0.533 0.533v1.6c0 0.295 0.238 0.533 0.533 0.533z"></path>
<path d="M21.333 17.6c-0.295 0-0.533 0.238-0.533 0.533v3.733c0 0.295 0.238 0.533 0.533 0.533s0.533-0.238 0.533-0.533v-3.733c0-0.295-0.238-0.533-0.533-0.533z"></path>
<path d="M23.467 18.667c-0.295 0-0.533 0.238-0.533 0.533v2.667c0 0.295 0.238 0.533 0.533 0.533s0.533-0.238 0.533-0.533v-2.667c0-0.295-0.238-0.533-0.533-0.533z"></path>
<path d="M25.6 14.933c-0.295 0-0.533 0.238-0.533 0.533v6.4c0 0.295 0.238 0.533 0.533 0.533s0.533-0.238 0.533-0.533v-6.4c0-0.295-0.238-0.533-0.533-0.533z"></path>
<path d="M27.733 17.067c-0.295 0-0.533 0.238-0.533 0.533v4.267c0 0.295 0.238 0.533 0.533 0.533s0.533-0.238 0.533-0.533v-4.267c0-0.295-0.238-0.533-0.533-0.533z"></path>
<path d="M4.267 20.267h5.333c0.295 0 0.533-0.238 0.533-0.533s-0.238-0.533-0.533-0.533h-5.333c-0.295 0-0.533 0.238-0.533 0.533s0.238 0.533 0.533 0.533z"></path>
<path d="M12.267 21.333h-8c-0.295 0-0.533 0.238-0.533 0.533s0.238 0.533 0.533 0.533h8c0.295 0 0.533-0.238 0.533-0.533s-0.238-0.533-0.533-0.533z"></path>
<path d="M15.976 9.924c-0.010-0.127-0.025-0.253-0.043-0.378-0.011-0.076-0.021-0.151-0.035-0.227-0.025-0.14-0.057-0.278-0.091-0.415-0.015-0.061-0.030-0.123-0.047-0.184-0.041-0.141-0.087-0.28-0.138-0.417-0.021-0.059-0.042-0.118-0.065-0.176-0.051-0.129-0.109-0.253-0.169-0.377-0.032-0.066-0.062-0.133-0.096-0.198-0.055-0.104-0.115-0.204-0.176-0.304-0.049-0.081-0.095-0.163-0.147-0.242-0.047-0.070-0.099-0.136-0.148-0.204-0.074-0.101-0.145-0.204-0.225-0.301 0-0.001-0.001-0.001-0.001-0.001-0.124-0.151-0.254-0.298-0.393-0.437-0.133-0.133-0.274-0.257-0.418-0.376-0.007-0.006-0.014-0.013-0.021-0.019-0.092-0.076-0.189-0.143-0.285-0.213-0.073-0.054-0.145-0.111-0.222-0.162-0.073-0.048-0.148-0.091-0.222-0.135-0.107-0.065-0.215-0.13-0.326-0.188-0.058-0.030-0.118-0.057-0.178-0.086-0.131-0.063-0.263-0.124-0.399-0.179-0.052-0.021-0.105-0.038-0.157-0.058-0.142-0.052-0.286-0.101-0.434-0.143-0.058-0.017-0.116-0.030-0.174-0.045-0.139-0.035-0.278-0.067-0.421-0.092-0.075-0.014-0.151-0.024-0.227-0.035-0.124-0.017-0.247-0.032-0.373-0.042-0.096-0.007-0.193-0.012-0.289-0.014-0.063-0.002-0.125-0.010-0.188-0.010-0.048 0-0.095 0.006-0.143 0.007-0.047 0.001-0.093-0.003-0.141-0.001l-0.211 0.013-0.005 0.006c-3.148 0.256-5.634 2.895-5.634 6.108 0 3.382 2.751 6.133 6.133 6.133 1.535 0 2.938-0.571 4.015-1.508 0.015-0.012 0.033-0.017 0.047-0.031 0.009-0.009 0.011-0.020 0.019-0.029 1.133-1.014 1.889-2.438 2.026-4.039l0.010-0.009 0.011-0.235c0.002-0.047-0.002-0.093-0.001-0.14 0-0.048 0.006-0.095 0.006-0.143 0-0.065-0.008-0.129-0.010-0.193-0.003-0.095-0.007-0.189-0.014-0.283zM10.133 5.347c0.053 0.003 0.106 0.004 0.159 0.008 0.055 0.004 0.111 0.010 0.166 0.016 0.121 0.014 0.241 0.033 0.359 0.055 0.036 0.007 0.071 0.013 0.107 0.020 0.145 0.031 0.289 0.067 0.429 0.11 0.009 0.003 0.018 0.005 0.026 0.007 1.58 0.495 2.829 1.744 3.324 3.324 0.003 0.009 0.005 0.018 0.007 0.026 0.043 0.14 0.079 0.283 0.11 0.429 0.007 0.036 0.013 0.071 0.020 0.107 0.022 0.118 0.041 0.238 0.055 0.359 0.006 0.055 0.011 0.11 0.016 0.166 0.004 0.052 0.005 0.106 0.008 0.159h-4.787v-4.787zM4.8 10.4c0-2.521 1.853-4.612 4.267-4.997v5.244l0.001 0.017c0 0.003 0.001 0.005 0.001 0.007l0.019 0.529h0.293l3.365 3.365c-0.818 0.567-1.809 0.901-2.878 0.901-2.794 0-5.067-2.273-5.067-5.067zM13.553 13.865l-2.665-2.665h3.977c-0.163 1.022-0.631 1.943-1.311 2.665z"></path>
<path d="M20.8 8h4.267c0.295 0 0.533-0.238 0.533-0.533s-0.238-0.533-0.533-0.533h-4.267c-0.295 0-0.533 0.238-0.533 0.533s0.238 0.533 0.533 0.533z"></path>
<path d="M27.36 7.088c-0.102 0.096-0.16 0.234-0.16 0.379s0.058 0.283 0.155 0.373c0.101 0.101 0.234 0.16 0.379 0.16 0.139 0 0.277-0.059 0.379-0.155 0.096-0.101 0.155-0.24 0.155-0.379s-0.059-0.278-0.155-0.379c-0.203-0.197-0.566-0.192-0.752 0z"></path>
<path d="M26.133 5.333h1.6c0.295 0 0.533-0.238 0.533-0.533s-0.238-0.533-0.533-0.533h-1.6c-0.295 0-0.533 0.238-0.533 0.533s0.238 0.533 0.533 0.533z"></path>
<path d="M20.8 5.333h1.067c0.295 0 0.533-0.238 0.533-0.533s-0.238-0.533-0.533-0.533h-1.067c-0.295 0-0.533 0.238-0.533 0.533s0.238 0.533 0.533 0.533z"></path>
<path d="M24 5.333c0.144 0 0.277-0.059 0.379-0.155 0.096-0.101 0.155-0.235 0.155-0.379s-0.059-0.278-0.155-0.379c-0.197-0.197-0.566-0.197-0.757 0-0.097 0.101-0.155 0.234-0.155 0.379s0.058 0.277 0.155 0.379c0.101 0.096 0.234 0.155 0.379 0.155z"></path>
</symbol>
<symbol id="icon-chart-pie-3-svgrepo-com" viewBox="0 0 32 32">
<path d="M13.331 2.131c0 0.295-0.239 0.533-0.533 0.533s-0.533-0.239-0.533-0.533c0-0.295 0.239-0.533 0.533-0.533s0.533 0.239 0.533 0.533z"></path>
<path d="M11.731 3.731c0 0.295-0.239 0.533-0.533 0.533s-0.533-0.239-0.533-0.533c0-0.295 0.239-0.533 0.533-0.533s0.533 0.239 0.533 0.533z"></path>
<path d="M8.531 6.931c0 0.295-0.239 0.533-0.533 0.533s-0.533-0.239-0.533-0.533c0-0.295 0.239-0.533 0.533-0.533s0.533 0.239 0.533 0.533z"></path>
<path d="M6.931 5.331c0 0.295-0.239 0.533-0.533 0.533s-0.533-0.239-0.533-0.533c0-0.295 0.239-0.533 0.533-0.533s0.533 0.239 0.533 0.533z"></path>
<path d="M6.931 8.532c0 0.295-0.239 0.533-0.533 0.533s-0.533-0.239-0.533-0.533c0-0.295 0.239-0.533 0.533-0.533s0.533 0.239 0.533 0.533z"></path>
<path d="M11.731 6.931c0 0.295-0.239 0.533-0.533 0.533s-0.533-0.239-0.533-0.533c0-0.295 0.239-0.533 0.533-0.533s0.533 0.239 0.533 0.533z"></path>
<path d="M13.331 5.331c0 0.295-0.239 0.533-0.533 0.533s-0.533-0.239-0.533-0.533c0-0.295 0.239-0.533 0.533-0.533s0.533 0.239 0.533 0.533z"></path>
<path d="M10.131 5.331c0 0.295-0.239 0.533-0.533 0.533s-0.533-0.239-0.533-0.533c0-0.295 0.239-0.533 0.533-0.533s0.533 0.239 0.533 0.533z"></path>
<path d="M13.331 8.532c0 0.295-0.239 0.533-0.533 0.533s-0.533-0.239-0.533-0.533c0-0.295 0.239-0.533 0.533-0.533s0.533 0.239 0.533 0.533z"></path>
<path d="M10.131 8.532c0 0.295-0.239 0.533-0.533 0.533s-0.533-0.239-0.533-0.533c0-0.295 0.239-0.533 0.533-0.533s0.533 0.239 0.533 0.533z"></path>
<path d="M5.331 10.132c0 0.295-0.239 0.533-0.533 0.533s-0.533-0.239-0.533-0.533c0-0.295 0.239-0.533 0.533-0.533s0.533 0.239 0.533 0.533z"></path>
<path d="M8.531 10.132c0 0.295-0.239 0.533-0.533 0.533s-0.533-0.239-0.533-0.533c0-0.295 0.239-0.533 0.533-0.533s0.533 0.239 0.533 0.533z"></path>
<path d="M11.731 10.132c0 0.295-0.239 0.533-0.533 0.533s-0.533-0.239-0.533-0.533c0-0.295 0.239-0.533 0.533-0.533s0.533 0.239 0.533 0.533z"></path>
<path d="M5.331 13.332c0 0.295-0.239 0.533-0.533 0.533s-0.533-0.239-0.533-0.533c0-0.295 0.239-0.533 0.533-0.533s0.533 0.239 0.533 0.533z"></path>
<path d="M3.731 11.732c0 0.295-0.239 0.533-0.533 0.533s-0.533-0.239-0.533-0.533c0-0.295 0.239-0.533 0.533-0.533s0.533 0.239 0.533 0.533z"></path>
<path d="M8.531 13.332c0 0.295-0.239 0.533-0.533 0.533s-0.533-0.239-0.533-0.533c0-0.295 0.239-0.533 0.533-0.533s0.533 0.239 0.533 0.533z"></path>
<path d="M6.931 11.732c0 0.295-0.239 0.533-0.533 0.533s-0.533-0.239-0.533-0.533c0-0.295 0.239-0.533 0.533-0.533s0.533 0.239 0.533 0.533z"></path>
<path d="M11.731 13.332c0 0.295-0.239 0.533-0.533 0.533s-0.533-0.239-0.533-0.533c0-0.295 0.239-0.533 0.533-0.533s0.533 0.239 0.533 0.533z"></path>
<path d="M13.331 11.732c0 0.295-0.239 0.533-0.533 0.533s-0.533-0.239-0.533-0.533c0-0.295 0.239-0.533 0.533-0.533s0.533 0.239 0.533 0.533z"></path>
<path d="M10.131 11.732c0 0.295-0.239 0.533-0.533 0.533s-0.533-0.239-0.533-0.533c0-0.295 0.239-0.533 0.533-0.533s0.533 0.239 0.533 0.533z"></path>
<path d="M15.465 0.001l-0.57 0.038c-7.929 0.541-14.316 6.928-14.856 14.857l-0.039 0.57h15.465v-15.465zM14.398 14.399h-13.245c0.024-0.225 0.067-0.444 0.101-0.667 0.093 0.080 0.211 0.133 0.343 0.133 0.294 0 0.533-0.239 0.533-0.533s-0.239-0.533-0.533-0.533c-0.065 0-0.124 0.016-0.181 0.037 0.3-1.379 0.794-2.686 1.449-3.896 0.092 0.075 0.205 0.126 0.333 0.126 0.294 0 0.533-0.239 0.533-0.533 0-0.226-0.141-0.416-0.339-0.494 0.28-0.441 0.582-0.866 0.906-1.275-0.018 0.054-0.034 0.109-0.034 0.169 0 0.294 0.239 0.533 0.533 0.533s0.533-0.239 0.533-0.533-0.239-0.533-0.533-0.533c-0.11 0-0.207 0.042-0.292 0.099 0.861-1.039 1.858-1.96 2.966-2.735 0.017 0.28 0.244 0.502 0.527 0.502 0.294 0 0.533-0.239 0.533-0.533 0-0.207-0.122-0.381-0.294-0.47 0.374-0.229 0.757-0.444 1.152-0.64 0.064 0.027 0.134 0.043 0.209 0.043 0.234 0 0.427-0.153 0.499-0.363 1.346-0.584 2.788-0.987 4.302-1.148v2.044c-0.294 0-0.533 0.239-0.533 0.533s0.239 0.533 0.533 0.533v2.134c-0.294 0-0.533 0.239-0.533 0.533s0.239 0.533 0.533 0.533v2.134c-0.294 0-0.533 0.239-0.533 0.533s0.239 0.533 0.533 0.533v2.134c-0.294 0-0.533 0.239-0.533 0.533s0.239 0.533 0.533 0.533v0.533z"></path>
<path d="M28.131 5.568c-2.818-3.272-6.735-5.236-11.030-5.529l-0.57-0.038v16.532h-16.532l0.039 0.57c0.237 3.473 1.569 6.706 3.852 9.349v0.001c0.205 0.237 0.434 0.473 0.744 0.766l0.813 0.769c0.31 0.294 0.559 0.509 0.806 0.699 2.803 2.159 6.229 3.314 9.76 3.314 0.415 0 0.832-0.015 1.249-0.048 7.743-0.597 14.054-6.881 14.681-14.617 0.351-4.323-1.004-8.501-3.814-11.766zM30.883 17.248c-0.586 7.219-6.476 13.083-13.701 13.64-3.704 0.287-7.353-0.796-10.277-3.048-0.218-0.167-0.441-0.361-0.724-0.629l-0.813-0.769c-0.282-0.267-0.489-0.479-0.669-0.688-2.006-2.322-3.225-5.132-3.545-8.155h16.446v-16.446c3.784 0.401 7.219 2.202 9.724 5.111 2.623 3.046 3.887 6.947 3.559 10.983z"></path>
<symbol id="icon-github" viewBox="0 0 45 16" version="1.1" width="67" data-view-component="true" class="octicon octicon-logo-github v-align-middle d-none d-md-inline-block">
    <path fill-rule="evenodd" d="M18.53 12.03h-.02c.009 0 .015.01.024.011h.006l-.01-.01zm.004.011c-.093.001-.327.05-.574.05-.78 0-1.05-.36-1.05-.83V8.13h1.59c.09 0 .16-.08.16-.19v-1.7c0-.09-.08-.17-.16-.17h-1.59V3.96c0-.08-.05-.13-.14-.13h-2.16c-.09 0-.14.05-.14.13v2.17s-1.09.27-1.16.28c-.08.02-.13.09-.13.17v1.36c0 .11.08.19.17.19h1.11v3.28c0 2.44 1.7 2.69 2.86 2.69.53 0 1.17-.17 1.27-.22.06-.02.09-.09.09-.16v-1.5a.177.177 0 00-.146-.18zM42.23 9.84c0-1.81-.73-2.05-1.5-1.97-.6.04-1.08.34-1.08.34v3.52s.49.34 1.22.36c1.03.03 1.36-.34 1.36-2.25zm2.43-.16c0 3.43-1.11 4.41-3.05 4.41-1.64 0-2.52-.83-2.52-.83s-.04.46-.09.52c-.03.06-.08.08-.14.08h-1.48c-.1 0-.19-.08-.19-.17l.02-11.11c0-.09.08-.17.17-.17h2.13c.09 0 .17.08.17.17v3.77s.82-.53 2.02-.53l-.01-.02c1.2 0 2.97.45 2.97 3.88zm-8.72-3.61h-2.1c-.11 0-.17.08-.17.19v5.44s-.55.39-1.3.39-.97-.34-.97-1.09V6.25c0-.09-.08-.17-.17-.17h-2.14c-.09 0-.17.08-.17.17v5.11c0 2.2 1.23 2.75 2.92 2.75 1.39 0 2.52-.77 2.52-.77s.05.39.08.45c.02.05.09.09.16.09h1.34c.11 0 .17-.08.17-.17l.02-7.47c0-.09-.08-.17-.19-.17zm-23.7-.01h-2.13c-.09 0-.17.09-.17.2v7.34c0 .2.13.27.3.27h1.92c.2 0 .25-.09.25-.27V6.23c0-.09-.08-.17-.17-.17zm-1.05-3.38c-.77 0-1.38.61-1.38 1.38 0 .77.61 1.38 1.38 1.38.75 0 1.36-.61 1.36-1.38 0-.77-.61-1.38-1.36-1.38zm16.49-.25h-2.11c-.09 0-.17.08-.17.17v4.09h-3.31V2.6c0-.09-.08-.17-.17-.17h-2.13c-.09 0-.17.08-.17.17v11.11c0 .09.09.17.17.17h2.13c.09 0 .17-.08.17-.17V8.96h3.31l-.02 4.75c0 .09.08.17.17.17h2.13c.09 0 .17-.08.17-.17V2.6c0-.09-.08-.17-.17-.17zM8.81 7.35v5.74c0 .04-.01.11-.06.13 0 0-1.25.89-3.31.89-2.49 0-5.44-.78-5.44-5.92S2.58 1.99 5.1 2c2.18 0 3.06.49 3.2.58.04.05.06.09.06.14L7.94 4.5c0 .09-.09.2-.2.17-.36-.11-.9-.33-2.17-.33-1.47 0-3.05.42-3.05 3.73s1.5 3.7 2.58 3.7c.92 0 1.25-.11 1.25-.11v-2.3H4.88c-.11 0-.19-.08-.19-.17V7.35c0-.09.08-.17.19-.17h3.74c.11 0 .19.08.19.17z"></path>
</svg>
</symbol>
</defs>
</svg>